<?xml version="1.0" encoding="utf-8"?>
<!-- Generator: Adobe Illustrator 20.0.0, SVG Export Plug-In . SVG Version: 6.00 Build 0)  -->
<svg version="1.1" id="Layer_1" xmlns="http://www.w3.org/2000/svg" xmlns:xlink="http://www.w3.org/1999/xlink" x="0px" y="0px"
	 viewBox="0 0 414 276" style="enable-background:new 0 0 414 276;" xml:space="preserve">
<style type="text/css">
	.st0{fill:#DAE3E6;}
	.st1{fill:#1D84FF;}
	.st2{fill:#FFFFFF;}
	.st3{font-family:'Myra4FCaps-Bold';}
	.st4{font-size:82.4332px;}
</style>
<g>
	<path class="st0" d="M131.5,17.9h-16c-1.2,0-2.2-1-2.2-2.2v0c0-1.2,1-2.2,2.2-2.2h16c1.2,0,2.2,1,2.2,2.2v0
		C133.8,16.9,132.7,17.9,131.5,17.9z"/>
	<path class="st0" d="M125.8,7.7v16c0,1.2-1,2.2-2.2,2.2l0,0c-1.2,0-2.2-1-2.2-2.2v-16c0-1.2,1-2.2,2.2-2.2l0,0
		C124.7,5.4,125.8,6.4,125.8,7.7z"/>
</g>
<path class="st1" d="M197,21.3c-7.5,0-13.5,6-13.5,13.5s6,13.5,13.5,13.5s13.5-6,13.5-13.5S204.5,21.3,197,21.3z M197,44.3
	c-5.3,0-9.5-4.3-9.5-9.5s4.3-9.5,9.5-9.5s9.5,4.3,9.5,9.5S202.3,44.3,197,44.3z"/>
<path class="st0" d="M69.6,56.4c-8.9,0-16,7.2-16,16s7.2,16,16,16s16-7.2,16-16S78.5,56.4,69.6,56.4z M69.6,81.8
	c-5.2,0-9.4-4.2-9.4-9.4c0-5.2,4.2-9.4,9.4-9.4c5.2,0,9.4,4.2,9.4,9.4C79,77.6,74.8,81.8,69.6,81.8z"/>
<path class="st1" d="M76,136.5h-3.1v-3.1c0-1.7-1.3-3-3-3h-0.5c-1.7,0-3,1.3-3,3v3.1h-3.1c-1.7,0-3,1.3-3,3v0.5c0,1.7,1.3,3,3,3h3.1
	v3.1c0,1.7,1.3,3,3,3h0.5c1.7,0,3-1.3,3-3V143H76c1.7,0,3-1.3,3-3v-0.5C79,137.8,77.7,136.5,76,136.5z"/>
<circle class="st0" cx="88.7" cy="182.5" r="6.2"/>
<circle class="st1" cx="340.8" cy="84.4" r="6.2"/>
<circle class="st0" cx="133.8" cy="63" r="5.3"/>
<path class="st0" d="M348.7,237.8h-5v-5c0-1.7-1.3-3-3-3h-0.5c-1.7,0-3,1.3-3,3v5h-5c-1.7,0-3,1.3-3,3v0.5c0,1.7,1.3,3,3,3h5v5
	c0,1.7,1.3,3,3,3h0.5c1.7,0,3-1.3,3-3v-5h5c1.7,0,3-1.3,3-3v-0.5C351.7,239.1,350.3,237.8,348.7,237.8z"/>
<path class="st0" d="M309.4,81.8H114.6c-4.8,0-8.7,3.9-8.7,8.7v133.6c0,4.8,3.9,8.7,8.7,8.7h194.7c4.8,0,8.7-3.9,8.7-8.7V90.4
	C318,85.7,314.1,81.8,309.4,81.8z M314,224.1c0,2.6-2.1,4.7-4.7,4.7H114.6c-2.6,0-4.7-2.1-4.7-4.7V90.4c0-2.6,2.1-4.7,4.7-4.7h194.7
	c2.6,0,4.7,2.1,4.7,4.7V224.1z"/>
<path class="st0" d="M302,92.5H122c-1.7,0-3,1.3-3,3V219c0,1.7,1.3,3,3,3h180c1.7,0,3-1.3,3-3V95.5C305,93.8,303.7,92.5,302,92.5z"
	/>
<path class="st0" d="M336.2,142h-12.5c-1.5,0-2.8-1.2-2.8-2.8l0,0c0-1.5,1.2-2.8,2.8-2.8h12.5c1.5,0,2.8,1.2,2.8,2.8l0,0
	C339,140.8,337.8,142,336.2,142z"/>
<path class="st1" d="M364.1,153h-16.1c-1.1,0-1.9-0.9-1.9-1.9l0,0c0-1.1,0.9-1.9,1.9-1.9h16.1c1.1,0,1.9,0.9,1.9,1.9l0,0
	C366,152.1,365.1,153,364.1,153z"/>
<path class="st0" d="M286.4,153h47.1c1.1,0,1.9-0.9,1.9-1.9l0,0c0-1.1-0.9-1.9-1.9-1.9h-47.1c-1.1,0-1.9,0.9-1.9,1.9l0,0
	C284.5,152.1,285.4,153,286.4,153z"/>
<path class="st0" d="M280.5,165h34c1.1,0,2-0.9,2-2l0,0c0-1.1-0.9-2-2-2h-34c-1.1,0-2,0.9-2,2l0,0C278.5,164.1,279.4,165,280.5,165z
	"/>
<path class="st0" d="M279.9,176.3h44.2c0.8,0,1.4-0.6,1.4-1.4l0,0c0-0.8-0.6-1.4-1.4-1.4h-44.2c-0.8,0-1.4,0.6-1.4,1.4l0,0
	C278.5,175.7,279.1,176.3,279.9,176.3z"/>
<path class="st0" d="M344.6,176.3h-7.7c-0.8,0-1.4-0.6-1.4-1.4l0,0c0-0.8,0.6-1.4,1.4-1.4h7.7c0.8,0,1.4,0.6,1.4,1.4l0,0
	C346,175.7,345.4,176.3,344.6,176.3z"/>
<circle class="st0" cx="260" cy="68.3" r="16"/>
<circle class="st1" cx="206.5" cy="255.8" r="13"/>
<g>
	<path class="st0" d="M261.7,266.5h119.6c1,0,1.8-0.8,1.8-1.8l0,0c0-1-0.8-1.8-1.8-1.8l-119.6,0c-1,0-1.8,0.8-1.8,1.8l0,0
		C260,265.7,260.8,266.5,261.7,266.5z"/>
	<path class="st0" d="M387.7,266.5h1.7c1,0,1.8-0.8,1.8-1.8l0,0c0-1-0.8-1.8-1.8-1.8h-1.7c-1,0-1.8,0.8-1.8,1.8l0,0
		C385.9,265.7,386.7,266.5,387.7,266.5z"/>
	<path class="st0" d="M223.2,275.3h94.3c1,0,1.8-0.8,1.8-1.8l0,0c0-1-0.8-1.8-1.8-1.8h-94.3c-1,0-1.8,0.8-1.8,1.8l0,0
		C221.4,274.5,222.2,275.3,223.2,275.3z"/>
	<path class="st0" d="M323.2,275.3h0.6c1,0,1.8-0.8,1.8-1.8l0,0c0-1-0.8-1.8-1.8-1.8h-0.6c-1,0-1.8,0.8-1.8,1.8l0,0
		C321.4,274.5,322.2,275.3,323.2,275.3z"/>
</g>
<g>
	<path class="st0" d="M130.2,267.4H10.7c-1,0-1.8,0.8-1.8,1.8l0,0c0,1,0.8,1.8,1.8,1.8l119.6,0c1,0,1.8-0.8,1.8-1.8l0,0
		C132,268.2,131.2,267.4,130.2,267.4z"/>
	<path class="st0" d="M4.2,267.4H2.5c-1,0-1.8,0.8-1.8,1.8l0,0c0,1,0.8,1.8,1.8,1.8h1.7c1,0,1.8-0.8,1.8-1.8l0,0
		C6.1,268.2,5.3,267.4,4.2,267.4z"/>
	<path class="st0" d="M168.8,258.6H74.5c-1,0-1.8,0.8-1.8,1.8l0,0c0,1,0.8,1.8,1.8,1.8h94.3c1,0,1.8-0.8,1.8-1.8l0,0
		C170.6,259.4,169.8,258.6,168.8,258.6z"/>
	<path class="st0" d="M68.8,258.6h-0.6c-1,0-1.8,0.8-1.8,1.8l0,0c0,1,0.8,1.8,1.8,1.8h0.6c1,0,1.8-0.8,1.8-1.8l0,0
		C70.6,259.4,69.8,258.6,68.8,258.6z"/>
</g>
<path class="st0" d="M376,37.8c-1,0-1.8-0.8-1.8-1.8s0.8-1.8,1.8-1.8h10.5c3.1,0,5.6-2.5,5.6-5.6c0-3.1-2.5-5.6-5.6-5.6
	c-0.3,0-0.6,0-0.9,0.1c-0.1,0-0.1,0-0.3,0c-0.4,0-0.8-0.1-1.1-0.4c-0.4-0.3-0.6-0.8-0.6-1.3c-0.4-6.3-5.6-11.2-11.9-11.2
	c-2.4,0-4.8,0.7-6.8,2.1c-0.3,0.2-0.7,0.3-1,0.3c-0.1,0-0.3,0-0.4-0.1c-0.5-0.1-0.9-0.4-1.1-0.9c-2.7-5-7.8-8-13.5-8
	c-6.7,0-12.5,4.3-14.5,10.6c-0.2,0.7-0.9,1.3-1.7,1.3c-0.1,0-0.3,0-0.4-0.1c-0.7-0.2-1.4-0.2-2.2-0.2c-5.2,0-9.5,4.2-9.5,9.5
	s4.2,9.5,9.5,9.5h16.7c1,0,1.8,0.8,1.8,1.8s-0.8,1.8-1.8,1.8h-16.7c-7.2,0-13-5.8-13-13s5.8-13,13-13c0.4,0,0.8,0,1.2,0.1l0.2,0
	l0.1-0.2c2.9-7,9.7-11.5,17.4-11.5c6.2,0,12,3,15.5,8.1l0.1,0.2l0.2-0.1c2.1-1.1,4.6-1.7,7-1.7c7.5,0,13.9,5.3,15.3,12.6l0,0.2
	l0.2,0c4.8,0.4,8.5,4.4,8.5,9.1c0,5-4.1,9.1-9.1,9.1H376z"/>
<path class="st0" d="M283.1,46.9c-0.9,0-1.6-0.7-1.6-1.6s0.7-1.6,1.6-1.6h60.3c0.9,0,1.6,0.7,1.6,1.6c0,0.9-0.7,1.6-1.6,1.6H283.1z"
	/>
<path class="st0" d="M277.1,46.9c-0.9,0-1.6-0.7-1.6-1.6s0.7-1.6,1.6-1.6h0.8c0.9,0,1.6,0.7,1.6,1.6c0,0.4-0.1,0.8-0.4,1.1
	c-0.3,0.3-0.7,0.5-1.2,0.5H277.1z"/>
<path class="st0" d="M316,55.3c-0.8,0-1.5-0.7-1.5-1.5s0.7-1.5,1.5-1.5h52.7c0.8,0,1.5,0.7,1.5,1.5s-0.7,1.5-1.5,1.5H316z"/>
<path class="st0" d="M373.7,55.3c-0.4,0-0.8-0.2-1.1-0.5c-0.3-0.3-0.4-0.7-0.4-1.1c0-0.4,0.2-0.8,0.4-1c0.3-0.3,0.7-0.5,1.1-0.5h0.5
	c0.8,0,1.5,0.7,1.5,1.5s-0.7,1.5-1.5,1.5H373.7z"/>
<path class="st0" d="M393,37c-0.6,0-1.2-0.6-1.2-1.4s0.5-1.4,1.2-1.4h9.6c0.6,0,1.2,0.6,1.2,1.4s-0.5,1.4-1.2,1.4H393z"/>
<path class="st0" d="M410.4,36.7c-0.8,0-1.5-0.7-1.5-1.5s0.7-1.5,1.5-1.5h1.9c0.8,0,1.5,0.7,1.5,1.5s-0.7,1.5-1.5,1.5H410.4z"/>
<text transform="matrix(1 0 0 1 125.7496 185.1199)" class="st2 st3 st4">404</text>
</svg>
