<?xml version="1.0" encoding="utf-8"?>
<!-- Generator: Adobe Illustrator 20.0.0, SVG Export Plug-In . SVG Version: 6.00 Build 0)  -->
<svg version="1.1" id="Layer_1" xmlns="http://www.w3.org/2000/svg" xmlns:xlink="http://www.w3.org/1999/xlink" x="0px" y="0px"
	 viewBox="0 0 91 80" style="enable-background:new 0 0 91 80;" xml:space="preserve">
<style type="text/css">
	.st0{fill:#FFFFFF;}
	.st1{fill:#FFFF00;}
</style>
<g>
	<polygon class="st0" points="8,0.2 9.9,5.9 15.9,5.9 11,9.5 12.9,15.2 8,11.7 3.1,15.2 5,9.5 0.1,5.9 6.2,5.9 	"/>
	<polygon class="st0" points="26.7,0.2 28.6,5.9 34.6,5.9 29.8,9.5 31.6,15.2 26.7,11.7 21.8,15.2 23.7,9.5 18.8,5.9 24.9,5.9 	"/>
	<polygon class="st0" points="45.4,0.2 47.3,5.9 53.4,5.9 48.5,9.5 50.3,15.2 45.4,11.7 40.6,15.2 42.4,9.5 37.5,5.9 43.6,5.9 	"/>
	<polygon class="st0" points="64.2,0.2 66,5.9 72.1,5.9 67.2,9.5 69,15.2 64.2,11.7 59.3,15.2 61.1,9.5 56.2,5.9 62.3,5.9 	"/>
	<polygon class="st0" points="82.9,0.2 84.7,5.9 90.8,5.9 85.9,9.5 87.8,15.2 82.9,11.7 78,15.2 79.8,9.5 74.9,5.9 81,5.9 	"/>
</g>
<g>
	<polygon class="st1" points="8,21.7 9.9,27.4 15.9,27.4 11,31 12.9,36.7 8,33.2 3.1,36.7 5,31 0.1,27.4 6.2,27.4 	"/>
	<polygon class="st1" points="26.7,21.7 28.6,27.4 34.6,27.4 29.8,31 31.6,36.7 26.7,33.2 21.8,36.7 23.7,31 18.8,27.4 24.9,27.4 	
		"/>
	<polygon class="st1" points="45.4,21.7 47.3,27.4 53.4,27.4 48.5,31 50.3,36.7 45.4,33.2 40.6,36.7 42.4,31 37.5,27.4 43.6,27.4 	
		"/>
	<polygon class="st1" points="64.2,21.7 66,27.4 72.1,27.4 67.2,31 69,36.7 64.2,33.2 59.3,36.7 61.1,31 56.2,27.4 62.3,27.4 	"/>
	<polygon class="st1" points="82.9,21.7 84.7,27.4 90.8,27.4 85.9,31 87.8,36.7 82.9,33.2 78,36.7 79.8,31 74.9,27.4 81,27.4 	"/>
</g>
<g>
	<polygon class="st1" points="8,43.2 9.9,48.9 15.9,48.9 11,52.5 12.9,58.2 8,54.7 3.1,58.2 5,52.5 0.1,48.9 6.2,48.9 	"/>
	<polygon class="st1" points="26.7,43.2 28.6,48.9 34.6,48.9 29.8,52.5 31.6,58.2 26.7,54.7 21.8,58.2 23.7,52.5 18.8,48.9 
		24.9,48.9 	"/>
	<polygon class="st1" points="45.4,43.2 47.3,48.9 53.4,48.9 48.5,52.5 50.3,58.2 45.4,54.7 40.6,58.2 42.4,52.5 37.5,48.9 
		43.6,48.9 	"/>
	<polygon class="st1" points="64.2,43.2 66,48.9 72.1,48.9 67.2,52.5 69,58.2 64.2,54.7 59.3,58.2 61.1,52.5 56.2,48.9 62.3,48.9 	
		"/>
	<polygon class="st0" points="82.9,43.2 84.7,48.9 90.8,48.9 85.9,52.5 87.8,58.2 82.9,54.7 78,58.2 79.8,52.5 74.9,48.9 81,48.9 	
		"/>
</g>
<g>
	<polygon class="st1" points="8,64.7 9.9,70.4 15.9,70.4 11,74 12.9,79.8 8,76.2 3.1,79.8 5,74 0.1,70.4 6.2,70.4 	"/>
	<polygon class="st1" points="26.7,64.7 28.6,70.4 34.6,70.4 29.8,74 31.6,79.8 26.7,76.2 21.8,79.8 23.7,74 18.8,70.4 24.9,70.4 	
		"/>
	<polygon class="st1" points="45.4,64.7 47.3,70.4 53.4,70.4 48.5,74 50.3,79.8 45.4,76.2 40.6,79.8 42.4,74 37.5,70.4 43.6,70.4 	
		"/>
	<polygon class="st0" points="64.2,64.7 66,70.4 72.1,70.4 67.2,74 69,79.8 64.2,76.2 59.3,79.8 61.1,74 56.2,70.4 62.3,70.4 	"/>
	<polygon class="st0" points="82.9,64.7 84.7,70.4 90.8,70.4 85.9,74 87.8,79.8 82.9,76.2 78,79.8 79.8,74 74.9,70.4 81,70.4 	"/>
</g>
</svg>
