<?xml version="1.0" encoding="utf-8"?>
<!-- Generator: Adobe Illustrator 20.0.0, SVG Export Plug-In . SVG Version: 6.00 Build 0)  -->
<svg version="1.1" id="Layer_1" xmlns="http://www.w3.org/2000/svg" xmlns:xlink="http://www.w3.org/1999/xlink" x="0px" y="0px"
	 viewBox="0 0 414 276" style="enable-background:new 0 0 414 276;" xml:space="preserve">
<style type="text/css">
	.st0{fill:#DAE3E6;}
	.st1{fill:#1D84FF;}
	.st2{fill:#FFFFFF;}
	.st3{font-family:'FZY4JW--GB1-0';}
	.st4{font-size:54.4356px;}
</style>
<g>
	<path class="st0" d="M128.9,27.1h-15.2c-1.2,0-2.1-1-2.1-2.1v0c0-1.2,1-2.1,2.1-2.1h15.2c1.2,0,2.1,1,2.1,2.1v0
		C131,26.1,130,27.1,128.9,27.1z"/>
	<path class="st0" d="M123.4,17.3v15.2c0,1.2-1,2.1-2.1,2.1l0,0c-1.2,0-2.1-1-2.1-2.1V17.3c0-1.2,1-2.1,2.1-2.1l0,0
		C122.5,15.2,123.4,16.2,123.4,17.3z"/>
</g>
<path class="st1" d="M190.9,30.2c-7.1,0-12.8,5.7-12.8,12.8s5.7,12.8,12.8,12.8c7.1,0,12.8-5.7,12.8-12.8S198,30.2,190.9,30.2z
	 M190.9,52.1c-5,0-9-4-9-9s4-9,9-9c5,0,9,4,9,9S195.9,52.1,190.9,52.1z"/>
<path class="st0" d="M70.3,63.5c-8.4,0-15.2,6.8-15.2,15.2s6.8,15.2,15.2,15.2s15.2-6.8,15.2-15.2S78.6,63.5,70.3,63.5z M70.3,87.6
	c-4.9,0-8.9-4-8.9-8.9c0-4.9,4-8.9,8.9-8.9c4.9,0,8.9,4,8.9,8.9C79.2,83.6,75.2,87.6,70.3,87.6z"/>
<path class="st1" d="M76.3,139.4h-3v-3c0-1.6-1.3-2.8-2.8-2.8H70c-1.6,0-2.8,1.3-2.8,2.8v3h-3c-1.6,0-2.8,1.3-2.8,2.8v0.5
	c0,1.6,1.3,2.8,2.8,2.8h3v3c0,1.6,1.3,2.8,2.8,2.8h0.5c1.6,0,2.8-1.3,2.8-2.8v-3h3c1.6,0,2.8-1.3,2.8-2.8v-0.5
	C79.2,140.7,77.9,139.4,76.3,139.4z"/>
<circle class="st0" cx="88.3" cy="183" r="5.8"/>
<circle class="st1" cx="327.1" cy="90" r="5.8"/>
<circle class="st0" cx="131" cy="69.8" r="5"/>
<path class="st0" d="M334.6,235.3h-4.7v-4.7c0-1.6-1.3-2.8-2.8-2.8h-0.5c-1.6,0-2.8,1.3-2.8,2.8v4.7h-4.7c-1.6,0-2.8,1.3-2.8,2.8
	v0.5c0,1.6,1.3,2.8,2.8,2.8h4.7v4.7c0,1.6,1.3,2.8,2.8,2.8h0.5c1.6,0,2.8-1.3,2.8-2.8v-4.7h4.7c1.6,0,2.8-1.3,2.8-2.8v-0.5
	C337.4,236.6,336.1,235.3,334.6,235.3z"/>
<path class="st0" d="M297.3,87.6H112.9c-4.5,0-8.2,3.7-8.2,8.2v126.6c0,4.5,3.7,8.2,8.2,8.2h184.5c4.5,0,8.2-3.7,8.2-8.2V95.8
	C305.5,91.2,301.9,87.6,297.3,87.6z M301.7,222.3c0,2.4-2,4.4-4.4,4.4H112.9c-2.4,0-4.4-2-4.4-4.4V95.8c0-2.4,2-4.4,4.4-4.4h184.5
	c2.4,0,4.4,2,4.4,4.4V222.3z"/>
<path class="st0" d="M290.4,97.7H119.9c-1.6,0-2.8,1.3-2.8,2.8v117c0,1.6,1.3,2.8,2.8,2.8h170.5c1.6,0,2.8-1.3,2.8-2.8v-117
	C293.2,99,291.9,97.7,290.4,97.7z"/>
<path class="st0" d="M322.8,144.6H311c-1.4,0-2.6-1.2-2.6-2.6v0c0-1.4,1.2-2.6,2.6-2.6h11.8c1.4,0,2.6,1.2,2.6,2.6v0
	C325.4,143.4,324.2,144.6,322.8,144.6z"/>
<path class="st1" d="M349.2,155h-15.3c-1,0-1.8-0.8-1.8-1.8l0,0c0-1,0.8-1.8,1.8-1.8h15.3c1,0,1.8,0.8,1.8,1.8l0,0
	C351,154.2,350.2,155,349.2,155z"/>
<path class="st0" d="M275.6,155h44.7c1,0,1.8-0.8,1.8-1.8l0,0c0-1-0.8-1.8-1.8-1.8h-44.7c-1,0-1.8,0.8-1.8,1.8l0,0
	C273.8,154.2,274.6,155,275.6,155z"/>
<path class="st0" d="M270,166.4h32.2c1,0,1.9-0.9,1.9-1.9v0c0-1-0.9-1.9-1.9-1.9H270c-1,0-1.9,0.9-1.9,1.9v0
	C268.1,165.5,269,166.4,270,166.4z"/>
<path class="st0" d="M269.4,177.1h41.8c0.7,0,1.3-0.6,1.3-1.3l0,0c0-0.7-0.6-1.3-1.3-1.3h-41.8c-0.7,0-1.3,0.6-1.3,1.3l0,0
	C268.1,176.5,268.7,177.1,269.4,177.1z"/>
<path class="st0" d="M330.7,177.1h-7.3c-0.7,0-1.3-0.6-1.3-1.3l0,0c0-0.7,0.6-1.3,1.3-1.3h7.3c0.7,0,1.3,0.6,1.3,1.3l0,0
	C332,176.5,331.4,177.1,330.7,177.1z"/>
<circle class="st0" cx="250.5" cy="74.8" r="15.2"/>
<circle class="st1" cx="199.9" cy="252.3" r="12.3"/>
<g>
	<path class="st0" d="M252.2,262.5h113.3c0.9,0,1.7-0.8,1.7-1.7l0,0c0-0.9-0.8-1.7-1.7-1.7l-113.3,0c-0.9,0-1.7,0.8-1.7,1.7l0,0
		C250.5,261.8,251.3,262.5,252.2,262.5z"/>
	<path class="st0" d="M371.6,262.5h1.6c0.9,0,1.7-0.8,1.7-1.7l0,0c0-0.9-0.8-1.7-1.7-1.7h-1.6c-0.9,0-1.7,0.8-1.7,1.7l0,0
		C369.8,261.8,370.6,262.5,371.6,262.5z"/>
	<path class="st0" d="M215.7,270.9H305c0.9,0,1.7-0.8,1.7-1.7l0,0c0-0.9-0.8-1.7-1.7-1.7h-89.3c-0.9,0-1.7,0.8-1.7,1.7l0,0
		C214,270.1,214.7,270.9,215.7,270.9z"/>
	<path class="st0" d="M310.4,270.9h0.6c0.9,0,1.7-0.8,1.7-1.7l0,0c0-0.9-0.8-1.7-1.7-1.7h-0.6c-0.9,0-1.7,0.8-1.7,1.7l0,0
		C308.7,270.1,309.5,270.9,310.4,270.9z"/>
</g>
<g>
	<path class="st0" d="M127.7,263.4H14.4c-0.9,0-1.7,0.8-1.7,1.7l0,0c0,0.9,0.8,1.7,1.7,1.7l113.3,0c0.9,0,1.7-0.8,1.7-1.7l0,0
		C129.3,264.1,128.6,263.4,127.7,263.4z"/>
	<path class="st0" d="M8.3,263.4H6.7c-0.9,0-1.7,0.8-1.7,1.7l0,0c0,0.9,0.8,1.7,1.7,1.7h1.6c0.9,0,1.7-0.8,1.7-1.7l0,0
		C10,264.1,9.3,263.4,8.3,263.4z"/>
	<path class="st0" d="M164.2,255H74.9c-0.9,0-1.7,0.8-1.7,1.7l0,0c0,0.9,0.8,1.7,1.7,1.7h89.3c0.9,0,1.7-0.8,1.7-1.7l0,0
		C165.9,255.8,165.1,255,164.2,255z"/>
	<path class="st0" d="M69.5,255h-0.6c-0.9,0-1.7,0.8-1.7,1.7l0,0c0,0.9,0.8,1.7,1.7,1.7h0.6c0.9,0,1.7-0.8,1.7-1.7l0,0
		C71.1,255.8,70.4,255,69.5,255z"/>
</g>
<text transform="matrix(1 0 0 1 122.5068 180.6357)" class="st2 st3 st4">维护中</text>
<g>
	<path class="st0" d="M38.9,231c-0.8,0-1.4-0.6-1.5-1.3l-0.7-6.6c-1.8-0.5-3.6-1.2-5.2-2.2l-5.2,4.2c-0.3,0.2-0.6,0.3-0.9,0.3
		c-0.4,0-0.8-0.2-1-0.4l-6.2-6.2c-0.5-0.5-0.6-1.4-0.1-2l4.2-5.2c-0.9-1.7-1.7-3.4-2.2-5.2l-6.6-0.7c-0.7-0.1-1.3-0.7-1.3-1.5v-8.8
		c0-0.8,0.6-1.4,1.3-1.5l6.6-0.7c0.5-1.8,1.2-3.6,2.2-5.2l-4.2-5.2c-0.5-0.6-0.4-1.4,0.1-2l6.2-6.2c0.3-0.3,0.6-0.4,1-0.4
		c0.3,0,0.7,0.1,0.9,0.3l5.2,4.2c1.7-0.9,3.4-1.7,5.2-2.2l0.7-6.6c0.1-0.7,0.7-1.3,1.5-1.3h8.8c0.8,0,1.4,0.6,1.5,1.3l0.7,6.6
		c1.8,0.5,3.6,1.2,5.2,2.2l5.2-4.2c0.3-0.2,0.6-0.3,0.9-0.3c0.4,0,0.8,0.2,1,0.4l6.2,6.2c0.5,0.5,0.6,1.4,0.1,2l-4.2,5.2
		c0.9,1.6,1.7,3.4,2.2,5.2l6.6,0.7c0.7,0.1,1.3,0.7,1.3,1.5v8.8c0,0.8-0.6,1.4-1.3,1.5l-6.6,0.7c-0.4,1.3-0.9,2.6-1.5,3.9
		c-0.2,0.5-0.8,0.8-1.3,0.8c-0.2,0-0.4,0-0.6-0.1c-0.4-0.2-0.6-0.5-0.7-0.8c-0.1-0.4-0.1-0.8,0.1-1.1c0.7-1.4,1.2-2.9,1.5-4.3
		c0.1-0.6,0.7-1.1,1.3-1.1l6.3-0.6v-6.2l-6.3-0.6c-0.6-0.1-1.1-0.5-1.3-1.1c-0.5-2.2-1.4-4.3-2.6-6.3c-0.3-0.5-0.3-1.2,0.1-1.7
		l4-4.9l-4.3-4.3l-4.9,4c-0.3,0.2-0.6,0.3-0.9,0.3c-0.3,0-0.5-0.1-0.8-0.2c-1.9-1.2-4.1-2.1-6.3-2.6c-0.6-0.1-1.1-0.7-1.1-1.3
		l-0.6-6.3h-6.1l-0.6,6.3c-0.1,0.6-0.5,1.1-1.1,1.3c-2.2,0.5-4.3,1.4-6.3,2.6c-0.2,0.1-0.5,0.2-0.8,0.2c-0.3,0-0.7-0.1-0.9-0.3
		l-4.9-4l-4.3,4.3l4,4.9c0.4,0.5,0.4,1.2,0.1,1.7c-1.2,1.9-2.1,4.1-2.6,6.3c-0.1,0.6-0.7,1.1-1.3,1.1l-6.3,0.6v6.1l6.3,0.6
		c0.6,0.1,1.1,0.5,1.3,1.1c0.5,2.2,1.4,4.3,2.6,6.3c0.3,0.5,0.3,1.2-0.1,1.7l-4,4.9l4.3,4.3l4.9-4c0.3-0.2,0.6-0.3,0.9-0.3
		c0.3,0,0.5,0.1,0.8,0.2c1.9,1.2,4.1,2.1,6.3,2.6c0.6,0.1,1.1,0.7,1.1,1.3l0.6,6.3h6.2l0.6-6.3c0.1-0.6,0.5-1.1,1.1-1.3
		c1.4-0.3,2.9-0.8,4.3-1.5c0.2-0.1,0.4-0.1,0.6-0.1c0.6,0,1.1,0.3,1.3,0.8c0.2,0.4,0.2,0.7,0.1,1.1c-0.1,0.4-0.4,0.7-0.7,0.8
		c-1.3,0.6-2.6,1.1-3.9,1.5l-0.7,6.6c-0.1,0.8-0.7,1.3-1.5,1.3H38.9z"/>
	<path class="st0" d="M47.7,230.5h-8.8c-0.5,0-0.9-0.4-1-0.9l-0.7-7c-2-0.5-3.9-1.3-5.7-2.4l-5.4,4.4c-0.4,0.3-1,0.3-1.3-0.1
		l-6.2-6.2c-0.4-0.4-0.4-0.9-0.1-1.3l4.4-5.4c-1-1.8-1.8-3.7-2.4-5.7l-7-0.7c-0.5-0.1-0.9-0.5-0.9-1v-8.8c0-0.5,0.4-0.9,0.9-1l7-0.7
		c0.5-2,1.3-3.9,2.4-5.7l-4.4-5.4c-0.3-0.4-0.3-1,0.1-1.3l6.2-6.2c0.4-0.4,0.9-0.4,1.3-0.1l5.4,4.4c1.8-1,3.7-1.8,5.7-2.4l0.7-7
		c0.1-0.5,0.5-0.9,1-0.9h8.8c0.5,0,0.9,0.4,1,0.9l0.7,7c2,0.5,3.9,1.3,5.7,2.4l5.4-4.4c0.4-0.3,1-0.3,1.3,0.1l6.2,6.2
		c0.4,0.4,0.4,0.9,0.1,1.3l-4.4,5.4c1,1.8,1.8,3.7,2.4,5.7l7,0.7c0.5,0.1,0.9,0.5,0.9,1v8.8c0,0.5-0.4,0.9-0.9,1l-7,0.7
		c-0.4,1.4-0.9,2.8-1.5,4.1c-0.2,0.5-0.8,0.7-1.3,0.5c-0.5-0.2-0.7-0.8-0.5-1.3c0.7-1.4,1.2-2.9,1.6-4.4c0.1-0.4,0.4-0.7,0.9-0.8
		l6.8-0.7v-7l-6.8-0.7c-0.4,0-0.8-0.3-0.9-0.8c-0.5-2.3-1.4-4.4-2.7-6.4c-0.2-0.4-0.2-0.8,0.1-1.1l4.3-5.3l-5-5l-5.3,4.3
		c-0.3,0.3-0.8,0.3-1.1,0.1c-2-1.2-4.1-2.1-6.4-2.7c-0.4-0.1-0.7-0.4-0.8-0.9l-0.7-6.8h-7l-0.7,6.8c0,0.4-0.3,0.8-0.8,0.9
		c-2.3,0.5-4.4,1.4-6.4,2.7c-0.4,0.2-0.8,0.2-1.1-0.1l-5.3-4.3l-5,5l4.3,5.3c0.3,0.3,0.3,0.8,0.1,1.1c-1.2,2-2.1,4.1-2.7,6.4
		c-0.1,0.4-0.4,0.7-0.9,0.8l-6.8,0.7v7l6.8,0.7c0.4,0,0.8,0.3,0.9,0.8c0.5,2.3,1.4,4.4,2.7,6.4c0.2,0.4,0.2,0.8-0.1,1.1l-4.3,5.3
		l5,5l5.3-4.3c0.3-0.3,0.8-0.3,1.1-0.1c2,1.2,4.1,2.1,6.4,2.7c0.4,0.1,0.7,0.4,0.8,0.9l0.7,6.8h7l0.7-6.8c0-0.4,0.3-0.8,0.8-0.9
		c1.5-0.3,2.9-0.9,4.4-1.6c0.5-0.2,1.1,0,1.3,0.5s0,1.1-0.5,1.3c-1.4,0.7-2.7,1.2-4.1,1.5l-0.7,7C48.6,230.1,48.2,230.5,47.7,230.5z
		"/>
	<path class="st0" d="M69.4,231c-1.3,0-2.6-0.5-3.5-1.4l-17.4-17.4l-4.8,1.3c-0.1,0-0.3,0-0.4,0c-0.4,0-0.8-0.2-1-0.4l-6.9-6.9
		c-0.4-0.4-0.5-0.9-0.4-1.4l1.5-5.6c0.1-0.5,0.5-0.9,1-1c0.1,0,0.3,0,0.4,0c0.4,0,0.8,0.2,1,0.4l4.6,4.6l2.8-2.8l-4.6-4.6
		c-0.4-0.4-0.5-0.9-0.4-1.4c0.1-0.5,0.5-0.9,1-1l5.6-1.5c0.1,0,0.3,0,0.4,0c0.4,0,0.8,0.2,1,0.4l6.9,6.9c0.4,0.4,0.5,0.9,0.4,1.4
		l-1.3,4.8l17.4,17.4c0.9,0.9,1.4,2.2,1.4,3.5c0,1.3-0.5,2.6-1.4,3.5C72,230.5,70.8,231,69.4,231z M49,209.1c0.4,0,0.8,0.2,1,0.4
		l18,18c0.4,0.4,0.9,0.6,1.4,0.6c0.5,0,1-0.2,1.4-0.6c0.4-0.4,0.6-0.9,0.6-1.4c0-0.5-0.2-1-0.6-1.4l-18-18c-0.4-0.4-0.5-0.9-0.4-1.4
		l1.3-4.8l-5.7-5.7l-2.3,0.6l3.9,3.9c0.3,0.3,0.4,0.6,0.4,1c0,0.4-0.2,0.8-0.4,1l-4.9,4.9c-0.3,0.3-0.6,0.4-1,0.4
		c-0.4,0-0.8-0.2-1-0.4l-3.9-3.9l-0.6,2.3l5.7,5.7l4.8-1.3C48.8,209.1,48.9,209.1,49,209.1z"/>
	<path class="st0" d="M69.4,230.5c-1.2,0-2.3-0.5-3.2-1.3l-17.6-17.6l-5,1.4c-0.3,0.1-0.7,0-1-0.3l-6.9-6.9c-0.2-0.2-0.3-0.6-0.3-1
		l1.5-5.6c0.1-0.3,0.4-0.6,0.7-0.7c0.3-0.1,0.7,0,1,0.3l5,5l3.5-3.5l-5-5c-0.3-0.3-0.3-0.6-0.3-1c0.1-0.3,0.4-0.6,0.7-0.7l5.6-1.5
		c0.3-0.1,0.7,0,1,0.3l6.9,6.9c0.2,0.2,0.3,0.6,0.3,1l-1.4,5l17.6,17.6c0.8,0.8,1.3,2,1.3,3.2c0,1.2-0.5,2.3-1.3,3.2
		C71.8,230.1,70.6,230.5,69.4,230.5z M49,209.6c0.3,0,0.5,0.1,0.7,0.3l18,18c0.5,0.5,1.1,0.7,1.8,0.7c0.7,0,1.3-0.3,1.8-0.7
		c0.5-0.5,0.7-1.1,0.7-1.8c0-0.7-0.3-1.3-0.7-1.8l-18-18c-0.2-0.2-0.3-0.6-0.3-1l1.4-5l-6.1-6.1l-3.4,0.9l4.5,4.5
		c0.2,0.2,0.3,0.4,0.3,0.7c0,0.3-0.1,0.5-0.3,0.7l-4.9,4.9c-0.2,0.2-0.4,0.3-0.7,0.3l0,0c-0.3,0-0.5-0.1-0.7-0.3l-4.5-4.5l-0.9,3.4
		l6.1,6.1l5-1.4C48.8,209.6,48.9,209.6,49,209.6z"/>
</g>
<g>
	<path class="st0" d="M380.8,42.6h-11.1c-0.7,0-1.2-0.5-1.2-1.2s0.5-1.2,1.2-1.2h11.1c3.6,0,6.6-3,6.6-6.6s-3-6.6-6.6-6.6
		c-0.4,0-0.7,0-1,0.1c-0.3,0.1-0.7,0-0.9-0.2c-0.2-0.2-0.4-0.5-0.5-0.9c-0.4-7-6.3-12.5-13.4-12.5c-2.7,0-5.4,0.8-7.6,2.4
		c-0.3,0.2-0.6,0.3-1,0.2s-0.6-0.3-0.8-0.6c-2.9-5.5-8.7-8.9-14.9-8.9c-7.4,0-13.9,4.7-16.1,11.8c-0.2,0.6-0.8,1-1.4,0.8
		c-0.8-0.2-1.6-0.3-2.5-0.3c-5.9,0-10.7,4.8-10.7,10.7s4.8,10.7,10.7,10.7h17.8c0.7,0,1.2,0.5,1.2,1.2s-0.5,1.2-1.2,1.2h-17.8
		c-7.3,0-13.2-5.9-13.2-13.2s5.9-13.2,13.2-13.2c0.7,0,1.3,0.1,1.9,0.2C325.5,9,332.6,4,340.7,4c6.7,0,12.8,3.4,16.3,9.1
		c2.4-1.4,5.1-2.1,7.9-2.1c7.9,0,14.6,5.9,15.7,13.6c0,0,0.1,0,0.1,0c5,0,9.1,4.1,9.1,9.1C389.8,38.5,385.8,42.6,380.8,42.6z"/>
	<path class="st0" d="M354.1,41.4H365H354.1z"/>
	<path class="st0" d="M335,52.3h-64c-0.5,0-1-0.4-1-1l0,0c0-0.5,0.4-1,1-1h64.1c0.5,0,1,0.4,1,1l0,0C336,51.8,335.6,52.3,335,52.3z"
		/>
	<path class="st0" d="M267.5,52.3h-0.9c-0.5,0-1-0.4-1-1l0,0c0-0.5,0.4-1,1-1h0.9c0.5,0,1,0.4,1,1l0,0
		C268.5,51.8,268.1,52.3,267.5,52.3z"/>
	<path class="st0" d="M305.9,61.2h56c0.5,0,0.9-0.4,0.9-0.9l0,0c0-0.5-0.4-0.9-0.9-0.9l-56,0c-0.5,0-0.9,0.4-0.9,0.9l0,0
		C305,60.7,305.4,61.2,305.9,61.2z"/>
	<path class="st0" d="M365.1,61.2h0.6c0.5,0,0.9-0.4,0.9-0.9l0,0c0-0.5-0.4-0.9-0.9-0.9h-0.6c-0.5,0-0.9,0.4-0.9,0.9l0,0
		C364.2,60.7,364.6,61.2,365.1,61.2z"/>
	<path class="st0" d="M388.1,41.4h12.8c0.5,0,0.9-0.4,0.9-0.9l0,0c0-0.5-0.4-0.9-0.9-0.9h-12.8c-0.5,0-0.9,0.4-0.9,0.9l0,0
		C387.1,41,387.5,41.4,388.1,41.4z"/>
	<path class="st0" d="M406.2,41.4h2c0.5,0,0.9-0.4,0.9-0.9l0,0c0-0.5-0.4-0.9-0.9-0.9h-2c-0.5,0-0.9,0.4-0.9,0.9l0,0
		C405.2,41,405.6,41.4,406.2,41.4z"/>
</g>
</svg>
